<svg width="800" height="600" viewBox="0 0 800 600" xmlns="http://www.w3.org/2000/svg">
  <defs>
    <linearGradient id="bg" x1="0%" y1="0%" x2="100%" y2="100%">
      <stop offset="0%" style="stop-color:#f97316;stop-opacity:0.8" />
      <stop offset="50%" style="stop-color:#ea580c;stop-opacity:0.6" />
      <stop offset="100%" style="stop-color:#dc2626;stop-opacity:0.4" />
    </linearGradient>
    <pattern id="dots" x="0" y="0" width="40" height="40" patternUnits="userSpaceOnUse">
      <circle cx="20" cy="20" r="2" fill="white" opacity="0.1"/>
    </pattern>
  </defs>
  
  <!-- Background -->
  <rect width="800" height="600" fill="url(#bg)"/>
  <rect width="800" height="600" fill="url(#dots)"/>
  
  <!-- Abstract shapes -->
  <circle cx="150" cy="100" r="80" fill="white" opacity="0.1"/>
  <circle cx="650" cy="500" r="120" fill="white" opacity="0.08"/>
  <rect x="500" y="50" width="200" height="200" rx="20" fill="white" opacity="0.06" transform="rotate(15 600 150)"/>
  
  <!-- Learning icons -->
  <g transform="translate(300, 200)" fill="white" opacity="0.15">
    <!-- Book icon -->
    <path d="M4 19.5A2.5 2.5 0 0 1 6.5 17H20a2 2 0 0 1 2 2v1.5a.5.5 0 0 1-.5.5h-15A2.5 2.5 0 0 1 4 18.5v1z"/>
    <path d="M6.5 2A2.5 2.5 0 0 0 4 4.5v10A2.5 2.5 0 0 0 6.5 17h13a.5.5 0 0 0 .5-.5V3a1 1 0 0 0-1-1H6.5z"/>
  </g>
  
  <g transform="translate(450, 350)" fill="white" opacity="0.12">
    <!-- Graduation cap -->
    <path d="M12 2L2 7v10c0 5.55 3.84 10 9 10s9-4.45 9-10V7l-8-5z"/>
    <path d="M12 2l10 5-10 5L2 7l10-5z"/>
  </g>
  
  <!-- Wishzy text -->
  <text x="400" y="320" text-anchor="middle" font-family="Arial, sans-serif" font-size="48" font-weight="bold" fill="white" opacity="0.1">
    Wishzy
  </text>
</svg>
