<svg width="400" height="400" viewBox="0 0 400 400" xmlns="http://www.w3.org/2000/svg">
  <defs>
    <linearGradient id="skyGradient" x1="0%" y1="0%" x2="0%" y2="100%">
      <stop offset="0%" style="stop-color:#87CEEB;stop-opacity:1" />
      <stop offset="100%" style="stop-color:#E0F6FF;stop-opacity:1" />
    </linearGradient>
  </defs>
  
  <!-- Background -->
  <rect width="400" height="400" fill="url(#skyGradient)"/>
  
  <!-- Clouds -->
  <g opacity="0.7">
    <ellipse cx="80" cy="60" rx="25" ry="15" fill="white">
      <animateTransform attributeName="transform" type="translate" values="0,0; 20,0; 0,0" dur="8s" repeatCount="indefinite"/>
    </ellipse>
    <ellipse cx="320" cy="80" rx="30" ry="18" fill="white">
      <animateTransform attributeName="transform" type="translate" values="0,0; -15,0; 0,0" dur="10s" repeatCount="indefinite"/>
    </ellipse>
  </g>
  
  <!-- Ground -->
  <ellipse cx="200" cy="380" rx="150" ry="20" fill="#90EE90" opacity="0.3"/>
  
  <!-- Little Boy -->
  <g transform="translate(200, 200)">
    <!-- Body -->
    <ellipse cx="0" cy="20" rx="25" ry="35" fill="#4A90E2">
      <animate attributeName="ry" values="35;32;35" dur="2s" repeatCount="indefinite"/>
    </ellipse>
    
    <!-- Head -->
    <circle cx="0" cy="-25" r="20" fill="#FDBCB4">
      <animate attributeName="cy" values="-25;-27;-25" dur="2s" repeatCount="indefinite"/>
    </circle>
    
    <!-- Hair -->
    <path d="M -18,-35 Q 0,-45 18,-35 Q 15,-25 0,-30 Q -15,-25 -18,-35" fill="#8B4513">
      <animate attributeName="d" values="M -18,-35 Q 0,-45 18,-35 Q 15,-25 0,-30 Q -15,-25 -18,-35;M -18,-36 Q 0,-46 18,-36 Q 15,-26 0,-31 Q -15,-26 -18,-36;M -18,-35 Q 0,-45 18,-35 Q 15,-25 0,-30 Q -15,-25 -18,-35" dur="2s" repeatCount="indefinite"/>
    </path>
    
    <!-- Eyes -->
    <circle cx="-6" cy="-28" r="2" fill="#000">
      <animate attributeName="r" values="2;0.5;2" dur="3s" repeatCount="indefinite"/>
    </circle>
    <circle cx="6" cy="-28" r="2" fill="#000">
      <animate attributeName="r" values="2;0.5;2" dur="3s" repeatCount="indefinite"/>
    </circle>
    
    <!-- Smile -->
    <path d="M -5,-20 Q 0,-15 5,-20" stroke="#000" stroke-width="1" fill="none">
      <animate attributeName="d" values="M -5,-20 Q 0,-15 5,-20;M -6,-19 Q 0,-14 6,-19;M -5,-20 Q 0,-15 5,-20" dur="2s" repeatCount="indefinite"/>
    </path>
    
    <!-- Arms -->
    <ellipse cx="-20" cy="5" rx="8" ry="20" fill="#FDBCB4" transform="rotate(-20)">
      <animateTransform attributeName="transform" type="rotate" values="-20;-10;-20" dur="2s" repeatCount="indefinite"/>
    </ellipse>
    <ellipse cx="20" cy="5" rx="8" ry="20" fill="#FDBCB4" transform="rotate(20)">
      <animateTransform attributeName="transform" type="rotate" values="20;10;20" dur="2s" repeatCount="indefinite"/>
    </ellipse>
    
    <!-- Legs -->
    <ellipse cx="-10" cy="50" rx="8" ry="25" fill="#2C5AA0">
      <animate attributeName="ry" values="25;23;25" dur="2s" repeatCount="indefinite"/>
    </ellipse>
    <ellipse cx="10" cy="50" rx="8" ry="25" fill="#2C5AA0">
      <animate attributeName="ry" values="25;23;25" dur="2s" repeatCount="indefinite"/>
    </ellipse>
    
    <!-- Feet -->
    <ellipse cx="-10" cy="75" rx="12" ry="6" fill="#000"/>
    <ellipse cx="10" cy="75" rx="12" ry="6" fill="#000"/>
    
    <!-- Floating animation for whole boy -->
    <animateTransform attributeName="transform" type="translate" values="200,200; 200,195; 200,200" dur="3s" repeatCount="indefinite"/>
  </g>
  
  <!-- Floating hearts -->
  <g opacity="0.6">
    <path d="M 50,150 C 50,145 55,140 60,140 C 65,140 70,145 70,150 C 70,155 60,165 60,165 C 60,165 50,155 50,150 Z" fill="#FF69B4">
      <animateTransform attributeName="transform" type="translate" values="0,0; 10,-20; 20,-40; 30,-60" dur="4s" repeatCount="indefinite"/>
      <animate attributeName="opacity" values="0.6;0.3;0" dur="4s" repeatCount="indefinite"/>
    </path>
    <path d="M 320,180 C 320,175 325,170 330,170 C 335,170 340,175 340,180 C 340,185 330,195 330,195 C 330,195 320,185 320,180 Z" fill="#FF1493">
      <animateTransform attributeName="transform" type="translate" values="0,0; -15,-25; -30,-50; -45,-75" dur="5s" repeatCount="indefinite"/>
      <animate attributeName="opacity" values="0.6;0.3;0" dur="5s" repeatCount="indefinite"/>
    </path>
  </g>
  
  <!-- Learning elements -->
  <g transform="translate(80, 320)" opacity="0.4">
    <!-- Book -->
    <rect x="0" y="0" width="30" height="20" rx="2" fill="#8B4513"/>
    <rect x="2" y="2" width="26" height="16" rx="1" fill="#F5F5DC"/>
    <line x1="15" y1="2" x2="15" y2="18" stroke="#8B4513" stroke-width="1"/>
    <animateTransform attributeName="transform" type="translate" values="80,320; 85,315; 80,320" dur="4s" repeatCount="indefinite"/>
  </g>
  
  <g transform="translate(290, 310)" opacity="0.4">
    <!-- Pencil -->
    <rect x="0" y="0" width="4" height="25" fill="#FFD700"/>
    <polygon points="0,0 4,0 2,-5" fill="#FF69B4"/>
    <rect x="0" y="20" width="4" height="5" fill="#FF69B4"/>
    <animateTransform attributeName="transform" type="translate" values="290,310; 285,305; 290,310" dur="3s" repeatCount="indefinite"/>
  </g>
</svg>
